# xmcd
# Track frame offsets:
# 150
# 16697
# 44907
# 66783
# 91127
# 114170
# 131162
# 159129
# 177727
#
# Disc length: 2811 seconds
# Revision: 0
# Processed by: cddbd v1.5.1PL0 Copyright (c) Steve Scherf et al.
# Submitted via: VisiTrax 2.9.10.228 - For more info visit www.synapsa.com
#
DISCID=700af909
DTITLE=Howllin' Wolf - In concert
DYEAR=1900
DGENRE=Blues
TTITLE0=Shake it for me
TTITLE1=Love me
TTITLE2=Dusty my broom
TTITLE3=I didn't mean to hurt your feelings
TTITLE4=Rockin' the blues
TTITLE5=All my life
TTITLE6=Goin' down slow
TTITLE7=Howlin' for my darlin'
TTITLE8=Forty four
EXTD=
EXTT0=
EXTT1=
EXTT2=
EXTT3=
EXTT4=
EXTT5=
EXTT6=
EXTT7=
EXTT8=
PLAYORDER=
